<?xml version="1.0" encoding="UTF-8"?>
<!DOCTYPE svg PUBLIC "-//W3C//DTD SVG 1.1//EN" "http://www.w3.org/Graphics/SVG/1.1/DTD/svg11.dtd">
<svg version="1.1" xmlns="http://www.w3.org/2000/svg" xmlns:xlink="http://www.w3.org/1999/xlink" x="0" y="0" width="620" height="130" viewBox="0, 0, 620, 130">
  <g id="Layer_1">
    <path d="M11,9.5 L611,9.5 L611,79.5 L11,79.5 L11,9.5 z" fill="#1F76C0"/>
    <path d="M211.5,10 L211.5,80" fill-opacity="0" stroke="#CCE3F1" stroke-width="1" stroke-dasharray="2,2"/>
    <path d="M411.5,10 L411.5,80" fill-opacity="0" stroke="#CCE3F1" stroke-width="1" stroke-dasharray="2,2"/>
    <g>
      <path d="M23.3,91.941 L599.7,89.059" fill-opacity="0" stroke="#2D7FFF" stroke-width="2"/>
      <path d="M23.282,88.341 L13.7,91.989 L23.318,95.541 z" fill="#2D7FFF" fill-opacity="1" stroke="#2D7FFF" stroke-width="2" stroke-opacity="1"/>
      <path d="M599.718,92.659 L609.3,89.011 L599.682,85.459 z" fill="#2D7FFF" fill-opacity="1" stroke="#2D7FFF" stroke-width="2" stroke-opacity="1"/>
    </g>
    <text transform="matrix(1, 0, 0, 1, 301.789, 107.5)">
      <tspan x="-48.926" y="7.5" font-family="GillSans" font-size="24" fill="#1F76C0">Key Space</tspan>
    </text>
    <text transform="matrix(1, 0, 0, 1, 101.242, 46.5)">
      <tspan x="-37.242" y="7.5" font-family="GillSans" font-size="24" fill="#FFFFFF">London</tspan>
    </text>
    <text transform="matrix(1, 0, 0, 1, 301.789, 46.5)">
      <tspan x="-47.789" y="7.5" font-family="GillSans" font-size="24" fill="#FFFFFF">New York</tspan>
    </text>
    <text transform="matrix(1, 0, 0, 1, 500.691, 46.5)">
      <tspan x="-33.691" y="7.5" font-family="GillSans" font-size="24" fill="#FFFFFF">Sydney</tspan>
    </text>
    <text transform="matrix(1, 0, 0, 1, 46.971, 107.5)">
      <tspan x="-35.971" y="7.5" font-family="GillSans" font-size="24" fill="#1F76C0">MinKey</tspan>
    </text>
    <text transform="matrix(1, 0, 0, 1, 572.539, 107.5)">
      <tspan x="-38.461" y="7.5" font-family="GillSans" font-size="24" fill="#1F76C0">MaxKey</tspan>
    </text>
    <path d="M11.5,10 L11.5,119" fill-opacity="0" stroke="#CCE3F1" stroke-width="2" stroke-dasharray="4,4"/>
    <path d="M611.5,10 L611.5,119" fill-opacity="0" stroke="#CCE3F1" stroke-width="2" stroke-dasharray="4,4"/>
  </g>
</svg>
