<?xml version="1.0" encoding="UTF-8" standalone="no"?>
<svg
   xmlns:dc="http://purl.org/dc/elements/1.1/"
   xmlns:cc="http://creativecommons.org/ns#"
   xmlns:rdf="http://www.w3.org/1999/02/22-rdf-syntax-ns#"
   xmlns:svg="http://www.w3.org/2000/svg"
   xmlns="http://www.w3.org/2000/svg"
   xmlns:sodipodi="http://sodipodi.sourceforge.net/DTD/sodipodi-0.dtd"
   xmlns:inkscape="http://www.inkscape.org/namespaces/inkscape"
   version="1.1"
   x="0"
   y="0"
   width="608.10199"
   height="384.89713"
   viewBox="0 0 608.10199 384.89713"
   id="svg2"
   inkscape:version="0.91 r13725"
   sodipodi:docname="dc-awareness-two-dcs.svg">
  <metadata
     id="metadata167">
    <rdf:RDF>
      <cc:Work
         rdf:about="">
        <dc:format>image/svg+xml</dc:format>
        <dc:type
           rdf:resource="http://purl.org/dc/dcmitype/StillImage" />
        <dc:title></dc:title>
      </cc:Work>
    </rdf:RDF>
  </metadata>
  <defs
     id="defs165" />
  <sodipodi:namedview
     pagecolor="#ffffff"
     bordercolor="#666666"
     borderopacity="1"
     objecttolerance="10"
     gridtolerance="10"
     guidetolerance="10"
     inkscape:pageopacity="0"
     inkscape:pageshadow="2"
     inkscape:window-width="2560"
     inkscape:window-height="1357"
     id="namedview163"
     showgrid="false"
     fit-margin-top="0"
     fit-margin-left="0"
     fit-margin-right="0"
     fit-margin-bottom="0"
     inkscape:zoom="1.4833529"
     inkscape:cx="690.15471"
     inkscape:cy="62.715098"
     inkscape:window-x="1496"
     inkscape:window-y="868"
     inkscape:window-maximized="1"
     inkscape:current-layer="Layer_1" />
  <g
     id="Layer_1"
     transform="translate(-20.949,-36.290383)">
    <text
       transform="matrix(1,-0.002,0.002,1,457.464,48.644)"
       id="text5">
      <tspan
         x="-33.723"
         y="4"
         font-size="24"
         kerning="-1.05"
         id="tspan7"
         style="font-size:24px;font-family:GillSans;fill:#173182">W</tspan>
      <tspan
         x="-9.7650003"
         y="4"
         font-size="24"
         kerning="0"
         id="tspan9"
         style="font-size:24px;font-family:GillSans;fill:#173182">rites</tspan>
    </text>
    <text
       transform="translate(533.74,48.715)"
       id="text11">
      <tspan
         x="-28.851999"
         y="4"
         font-size="24"
         id="tspan13"
         style="font-size:24px;font-family:GillSans;fill:#484743">Reads</tspan>
    </text>
    <g
       id="g15">
      <g
         id="g17">
        <path
           d="m 457.932,66.715 -0.016,89"
           id="path19"
           inkscape:connector-curvature="0"
           style="fill:#333337" />
        <g
           id="g21">
          <path
             d="m 457.932,66.715 -0.013,75.4"
             id="path23"
             inkscape:connector-curvature="0"
             style="fill-opacity:0;stroke:#173182;stroke-width:3" />
          <path
             d="m 453.719,142.114 4.198,11.201 4.202,-11.199 z"
             id="path25"
             inkscape:connector-curvature="0"
             style="fill:#173182;fill-opacity:1;stroke:#173182;stroke-width:3;stroke-opacity:1" />
        </g>
      </g>
      <g
         id="g27">
        <path
           d="m 529.73,155.715 0,-75.4"
           id="path29"
           inkscape:connector-curvature="0"
           style="fill-opacity:0;stroke:#484743;stroke-width:3" />
        <path
           d="m 533.93,80.315 -4.2,-11.2 -4.2,11.2 z"
           id="path31"
           inkscape:connector-curvature="0"
           style="fill:#484743;fill-opacity:1;stroke:#484743;stroke-width:3;stroke-opacity:1" />
      </g>
    </g>
    <text
       id="text33"
       x="494.01559"
       y="403.54352">
      <tspan
         x="422.04559"
         y="410.54352"
         font-size="24"
         id="tspan35"
         style="font-size:24px;font-family:GillSans;fill:#311e13">Data Center 2</tspan>
    </text>
    <path
       d="m 359.423,159.715 267.628,0 0,230.57 -267.628,0 z"
       id="path37"
       inkscape:connector-curvature="0"
       style="fill-opacity:0;stroke:#301c11;stroke-width:4" />
    <g
       id="g39">
      <g
         id="g41">
        <path
           d="m 550.737,168.621 c 0,-0.807 -1.671,-1.461 -3.735,-1.461 l -107.53,0 c -2.062,0 -3.735,0.654 -3.735,1.461 l 0,42.077 c 0,0.807 1.673,1.462 3.735,1.462 l 107.53,0 c 2.064,0 3.735,-0.655 3.735,-1.462 l 0,-42.077"
           id="path43"
           inkscape:connector-curvature="0"
           style="fill:#1d4595" />
        <text
           transform="translate(493.237,189.66)"
           id="text45">
          <tspan
             x="-38.237999"
             y="5.8200002"
             font-size="24"
             id="tspan47"
             style="font-size:24px;font-family:GillSans;fill:#ffffff">Primary</tspan>
        </text>
      </g>
      <g
         id="g49">
        <g
           id="g51">
          <path
             d="m 480.721,247.391 c 0,-0.807 -1.671,-1.461 -3.735,-1.461 l -107.53,0 c -2.062,0 -3.735,0.654 -3.735,1.461 l 0,42.077 c 0,0.807 1.673,1.462 3.735,1.462 l 107.53,0 c 2.064,0 3.735,-0.655 3.735,-1.462 l 0,-42.077"
             id="path53"
             inkscape:connector-curvature="0"
             style="fill:#a4c077" />
          <text
             transform="translate(423.221,268.43)"
             id="text55">
            <tspan
               x="-50.724998"
               y="7"
               font-size="24"
               id="tspan57"
               style="font-size:24px;font-family:GillSans;fill:#fffffe">Secondary</tspan>
          </text>
        </g>
        <g
           id="g59">
          <path
             d="m 622.715,247.391 c 0,-0.807 -1.671,-1.461 -3.735,-1.461 l -107.53,0 c -2.062,0 -3.735,0.654 -3.735,1.461 l 0,42.077 c 0,0.807 1.673,1.462 3.735,1.462 l 107.53,0 c 2.064,0 3.735,-0.655 3.735,-1.462 l 0,-42.077"
             id="path61"
             inkscape:connector-curvature="0"
             style="fill:#a4c077" />
          <text
             transform="translate(565.215,268.43)"
             id="text63">
            <tspan
               x="-50.724998"
               y="7"
               font-size="24"
               id="tspan65"
               style="font-size:24px;font-family:GillSans;fill:#fffffe">Secondary</tspan>
          </text>
        </g>
      </g>
    </g>
    <g
       id="g67">
      <text
         transform="matrix(1,-0.002,0.002,1,120.49,48.644)"
         id="text69">
        <tspan
           x="-33.723"
           y="4"
           font-size="24"
           kerning="-1.05"
           id="tspan71"
           style="font-size:24px;font-family:GillSans;fill:#2a86c0">W</tspan>
        <tspan
           x="-9.7650003"
           y="4"
           font-size="24"
           kerning="0"
           id="tspan73"
           style="font-size:24px;font-family:GillSans;fill:#2a86c0">rites</tspan>
      </text>
      <g
         id="g75">
        <path
           d="m 120.957,66.715 -0.013,75.4"
           id="path77"
           inkscape:connector-curvature="0"
           style="fill-opacity:0;stroke:#2a86c0;stroke-width:3" />
        <path
           d="m 116.744,142.114 4.198,11.201 4.202,-11.199 z"
           id="path79"
           inkscape:connector-curvature="0"
           style="fill:#2a86c0;fill-opacity:1;stroke:#2a86c0;stroke-width:3;stroke-opacity:1" />
      </g>
    </g>
    <text
       transform="translate(197.766,48.715)"
       id="text81">
      <tspan
         x="-28.851999"
         y="4"
         font-size="24"
         id="tspan83"
         style="font-size:24px;font-family:GillSans;fill:#484743">Reads</tspan>
    </text>
    <text
       y="403.54352"
       x="160.89978"
       id="text87">
      <tspan
         style="font-size:24px;font-family:GillSans;fill:#311e13"
         id="tspan89"
         font-size="24"
         y="410.54352"
         x="87.563782">Data Center 1</tspan>
    </text>
    <path
       style="fill-opacity:0;stroke:#301c11;stroke-width:4"
       inkscape:connector-curvature="0"
       id="path91"
       d="m 22.949,159.715 267.628,0 0,230.57 -267.628,0 z" />
    <g
       id="g93">
      <g
         id="g95">
        <path
           d="m 214.263,168.621 c 0,-0.807 -1.671,-1.461 -3.735,-1.461 l -107.53,0 c -2.062,0 -3.735,0.654 -3.735,1.461 l 0,42.077 c 0,0.807 1.673,1.462 3.735,1.462 l 107.53,0 c 2.064,0 3.735,-0.655 3.735,-1.462 l 0,-42.077"
           id="path97"
           inkscape:connector-curvature="0"
           style="fill:#2a86c0" />
        <text
           transform="translate(156.763,189.66)"
           id="text99">
          <tspan
             x="-38.237999"
             y="5.8200002"
             font-size="24"
             id="tspan101"
             style="font-size:24px;font-family:GillSans;fill:#ffffff">Primary</tspan>
        </text>
      </g>
      <g
         id="g103">
        <g
           id="g105">
          <path
             d="m 143.891,248.461 c 0,-0.807 -1.671,-1.461 -3.736,-1.461 l -107.529,0 c -2.063,0 -3.735,0.654 -3.735,1.461 l 0,42.077 c 0,0.807 1.672,1.462 3.735,1.462 l 107.529,0 c 2.065,0 3.736,-0.655 3.736,-1.462 l 0,-42.077"
             id="path107"
             inkscape:connector-curvature="0"
             style="fill:#5ca831" />
          <text
             transform="translate(85.905,270.25)"
             id="text109">
            <tspan
               x="-50.724998"
               y="7"
               font-size="24"
               id="tspan111"
               style="font-size:24px;font-family:GillSans;fill:#fffffe">Secondary</tspan>
          </text>
        </g>
        <g
           id="g113">
          <path
             d="m 284.635,248.461 c 0,-0.807 -1.671,-1.461 -3.735,-1.461 l -107.53,0 c -2.062,0 -3.735,0.654 -3.735,1.461 l 0,42.077 c 0,0.807 1.673,1.462 3.735,1.462 l 107.53,0 c 2.064,0 3.735,-0.655 3.735,-1.462 l 0,-42.077"
             id="path115"
             inkscape:connector-curvature="0"
             style="fill:#5ca831" />
          <text
             transform="translate(226.649,270.25)"
             id="text117">
            <tspan
               x="-50.724998"
               y="7"
               font-size="24"
               id="tspan119"
               style="font-size:24px;font-family:GillSans;fill:#fffffe">Secondary</tspan>
          </text>
        </g>
      </g>
    </g>
    <g
       id="g121">
      <g
         id="g123">
        <path
           d="m 121,214 0,20"
           id="path125"
           inkscape:connector-curvature="0"
           style="fill-opacity:0;stroke:#2a86c0;stroke-width:1;stroke-dasharray:2, 2" />
        <path
           d="m 118,234 3,8 3,-8 z"
           id="path127"
           inkscape:connector-curvature="0"
           style="fill:#2a86c0;fill-opacity:1;stroke:#2a86c0;stroke-width:1;stroke-opacity:1" />
      </g>
      <g
         id="g129">
        <path
           d="m 191,214 0,20"
           id="path131"
           inkscape:connector-curvature="0"
           style="fill-opacity:0;stroke:#2a86c0;stroke-width:1;stroke-dasharray:2, 2" />
        <path
           d="m 188,234 3,8 3,-8 z"
           id="path133"
           inkscape:connector-curvature="0"
           style="fill:#2a86c0;fill-opacity:1;stroke:#2a86c0;stroke-width:1;stroke-opacity:1" />
      </g>
      <text
         transform="translate(155.835,225)"
         id="text135">
        <tspan
           x="-29.834999"
           y="4.5"
           font-size="14"
           id="tspan137"
           style="font-size:14px;font-family:GillSans;fill:#2a86c0">replication</tspan>
      </text>
    </g>
    <g
       id="g139">
      <g
         id="g141">
        <path
           d="m 459,215.286 0,20"
           id="path143"
           inkscape:connector-curvature="0"
           style="fill-opacity:0;stroke:#1d4595;stroke-width:1;stroke-dasharray:2, 2" />
        <path
           d="m 456,235.286 3,8 3,-8 z"
           id="path145"
           inkscape:connector-curvature="0"
           style="fill:#1d4595;fill-opacity:1;stroke:#1d4595;stroke-width:1;stroke-opacity:1" />
      </g>
      <g
         id="g147">
        <path
           d="m 529,215.286 0,20"
           id="path149"
           inkscape:connector-curvature="0"
           style="fill-opacity:0;stroke:#1d4595;stroke-width:1;stroke-dasharray:2, 2" />
        <path
           d="m 526,235.286 3,8 3,-8 z"
           id="path151"
           inkscape:connector-curvature="0"
           style="fill:#1d4595;fill-opacity:1;stroke:#1d4595;stroke-width:1;stroke-opacity:1" />
      </g>
      <text
         transform="translate(493.835,226.286)"
         id="text153">
        <tspan
           x="-29.834999"
           y="4.5"
           font-size="14"
           id="tspan155"
           style="font-size:14px;font-family:GillSans;fill:#1d4595">replication</tspan>
      </text>
    </g>
    <g
       id="g157">
      <path
         d="m 191,155.715 0,-75.4"
         id="path159"
         inkscape:connector-curvature="0"
         style="fill-opacity:0;stroke:#484743;stroke-width:3" />
      <path
         d="m 195.2,80.315 -4.2,-11.2 -4.2,11.2 z"
         id="path161"
         inkscape:connector-curvature="0"
         style="fill:#484743;fill-opacity:1;stroke:#484743;stroke-width:3;stroke-opacity:1" />
    </g>
  </g>
</svg>
