<?xml version="1.0" encoding="UTF-8" standalone="no"?>
<svg
   xmlns:dc="http://purl.org/dc/elements/1.1/"
   xmlns:cc="http://creativecommons.org/ns#"
   xmlns:rdf="http://www.w3.org/1999/02/22-rdf-syntax-ns#"
   xmlns:svg="http://www.w3.org/2000/svg"
   xmlns="http://www.w3.org/2000/svg"
   xmlns:sodipodi="http://sodipodi.sourceforge.net/DTD/sodipodi-0.dtd"
   xmlns:inkscape="http://www.inkscape.org/namespaces/inkscape"
   version="1.1"
   x="0"
   y="0"
   width="682.51801"
   height="582.89709"
   viewBox="0 0 682.51801 582.89709"
   id="svg2"
   inkscape:version="0.91 r13725"
   sodipodi:docname="two-data-centers-high-availability.svg">
  <metadata
     id="metadata277">
    <rdf:RDF>
      <cc:Work
         rdf:about="">
        <dc:format>image/svg+xml</dc:format>
        <dc:type
           rdf:resource="http://purl.org/dc/dcmitype/StillImage" />
        <dc:title></dc:title>
      </cc:Work>
    </rdf:RDF>
  </metadata>
  <defs
     id="defs275" />
  <sodipodi:namedview
     pagecolor="#ffffff"
     bordercolor="#666666"
     borderopacity="1"
     objecttolerance="10"
     gridtolerance="10"
     guidetolerance="10"
     inkscape:pageopacity="0"
     inkscape:pageshadow="2"
     inkscape:window-width="2560"
     inkscape:window-height="1357"
     id="namedview273"
     showgrid="false"
     fit-margin-top="0"
     fit-margin-left="0"
     fit-margin-right="0"
     fit-margin-bottom="0"
     inkscape:zoom="1.0269366"
     inkscape:cx="611.87725"
     inkscape:cy="268.0292"
     inkscape:window-x="1496"
     inkscape:window-y="868"
     inkscape:window-maximized="1"
     inkscape:current-layer="svg2" />
  <g
     id="Layer_1"
     transform="translate(-7.745,-36.290383)">
    <text
       transform="matrix(1,-0.002,0.002,1,489.413,48.644)"
       id="text5">
      <tspan
         x="-33.723"
         y="4"
         font-size="24"
         kerning="-1.05"
         id="tspan7"
         style="font-size:24px;font-family:GillSans;fill:#173182">W</tspan>
      <tspan
         x="-9.7650003"
         y="4"
         font-size="24"
         kerning="0"
         id="tspan9"
         style="font-size:24px;font-family:GillSans;fill:#173182">rites</tspan>
    </text>
    <g
       id="g11">
      <path
         d="m 489.881,66.715 -0.016,89"
         id="path13"
         inkscape:connector-curvature="0"
         style="fill:#333337" />
      <g
         id="g15">
        <path
           d="m 489.881,66.715 -0.014,75.4"
           id="path17"
           inkscape:connector-curvature="0"
           style="fill-opacity:0;stroke:#173182;stroke-width:3" />
        <path
           d="m 485.667,142.114 4.198,11.201 4.202,-11.199 z"
           id="path19"
           inkscape:connector-curvature="0"
           style="fill:#173182;fill-opacity:1;stroke:#173182;stroke-width:3;stroke-opacity:1" />
      </g>
    </g>
    <text
       transform="translate(565.689,48.715)"
       id="text21">
      <tspan
         x="-28.851999"
         y="4"
         font-size="24"
         id="tspan23"
         style="font-size:24px;font-family:GillSans;fill:#484743">Reads</tspan>
    </text>
    <g
       id="g25">
      <path
         d="m 560.679,155.715 0,-75.4"
         id="path27"
         inkscape:connector-curvature="0"
         style="fill-opacity:0;stroke:#484743;stroke-width:3" />
      <path
         d="m 564.879,80.315 -4.2,-11.2 -4.2,11.2 z"
         id="path29"
         inkscape:connector-curvature="0"
         style="fill:#484743;fill-opacity:1;stroke:#484743;stroke-width:3;stroke-opacity:1" />
    </g>
    <g
       id="g31">
      <text
         transform="matrix(1,-0.002,0.002,1,152.439,48.644)"
         id="text33">
        <tspan
           x="-33.723"
           y="4"
           font-size="24"
           kerning="-1.05"
           id="tspan35"
           style="font-size:24px;font-family:GillSans;fill:#2a86c0">W</tspan>
        <tspan
           x="-9.7650003"
           y="4"
           font-size="24"
           kerning="0"
           id="tspan37"
           style="font-size:24px;font-family:GillSans;fill:#2a86c0">rites</tspan>
      </text>
      <g
         id="g39">
        <path
           d="m 152.906,66.715 -0.013,75.4"
           id="path41"
           inkscape:connector-curvature="0"
           style="fill-opacity:0;stroke:#2a86c0;stroke-width:3" />
        <path
           d="m 148.693,142.114 4.198,11.201 4.202,-11.199 z"
           id="path43"
           inkscape:connector-curvature="0"
           style="fill:#2a86c0;fill-opacity:1;stroke:#2a86c0;stroke-width:3;stroke-opacity:1" />
      </g>
    </g>
    <text
       transform="translate(229.715,48.715)"
       id="text45">
      <tspan
         x="-28.851999"
         y="4"
         font-size="24"
         id="tspan47"
         style="font-size:24px;font-family:GillSans;fill:#484743">Reads</tspan>
    </text>
    <g
       id="g49">
      <path
         d="m 205.704,155.715 0,-75.4"
         id="path51"
         inkscape:connector-curvature="0"
         style="fill-opacity:0;stroke:#484743;stroke-width:3" />
      <path
         d="m 209.904,80.315 -4.2,-11.2 -4.2,11.2 z"
         id="path53"
         inkscape:connector-curvature="0"
         style="fill:#484743;fill-opacity:1;stroke:#484743;stroke-width:3;stroke-opacity:1" />
    </g>
    <g
       id="g55">
      <text
         transform="translate(172.058,406)"
         id="text57">
        <tspan
           x="-70.835999"
           y="7"
           font-size="24"
           id="tspan59"
           style="font-size:24px;font-family:GillSans;fill:#311e13">Data Center 1</tspan>
      </text>
      <g
         id="g61">
        <g
           id="g63">
          <g
             id="g65">
            <path
               d="m 159.186,248.461 c 0,-0.807 -1.671,-1.461 -3.735,-1.461 l -107.53,0 c -2.062,0 -3.735,0.654 -3.735,1.461 l 0,42.077 c 0,0.807 1.673,1.462 3.735,1.462 l 107.53,0 c 2.064,0 3.735,-0.655 3.735,-1.462 l 0,-42.077"
               id="path67"
               inkscape:connector-curvature="0"
               style="fill:#5ca831" />
            <text
               transform="translate(101.2,270.25)"
               id="text69">
              <tspan
                 x="-50.724998"
                 y="7"
                 font-size="24"
                 id="tspan71"
                 style="font-size:24px;font-family:GillSans;fill:#fffffe">Secondary</tspan>
            </text>
          </g>
          <g
             id="g73">
            <path
               d="m 299.931,248.461 c 0,-0.807 -1.671,-1.461 -3.736,-1.461 l -107.529,0 c -2.062,0 -3.735,0.654 -3.735,1.461 l 0,42.077 c 0,0.807 1.673,1.462 3.735,1.462 l 107.529,0 c 2.065,0 3.736,-0.655 3.736,-1.462 l 0,-42.077"
               id="path75"
               inkscape:connector-curvature="0"
               style="fill:#5ca831" />
            <text
               transform="translate(241.945,270.25)"
               id="text77">
              <tspan
                 x="-50.724998"
                 y="7"
                 font-size="24"
                 id="tspan79"
                 style="font-size:24px;font-family:GillSans;fill:#fffffe">Secondary</tspan>
            </text>
          </g>
        </g>
        <g
           id="g81">
          <path
             d="m 9.745,160.43 324.627,0 0,230.57 -324.627,0 z"
             id="path83"
             inkscape:connector-curvature="0"
             style="fill-opacity:0;stroke:#301c11;stroke-width:4" />
          <g
             id="g85">
            <g
               id="g87">
              <path
                 d="m 229.558,168.62 c 0,-0.806 -1.67,-1.46 -3.735,-1.46 l -107.529,0 c -2.063,0 -3.736,0.654 -3.736,1.46 l 0,42.078 c 0,0.807 1.673,1.462 3.736,1.462 l 107.529,0 c 2.065,0 3.735,-0.655 3.735,-1.462 l 0,-42.078"
                 id="path89"
                 inkscape:connector-curvature="0"
                 style="fill:#2a86c0" />
              <text
                 transform="translate(172.058,189.66)"
                 id="text91">
                <tspan
                   x="-38.237999"
                   y="5.8200002"
                   font-size="24"
                   id="tspan93"
                   style="font-size:24px;font-family:GillSans;fill:#ffffff">Primary</tspan>
              </text>
            </g>
            <g
               id="g95">
              <g
                 id="g97">
                <path
                   d="m 136.296,214 0,20"
                   id="path99"
                   inkscape:connector-curvature="0"
                   style="fill-opacity:0;stroke:#2a86c0;stroke-width:1;stroke-dasharray:2, 2" />
                <path
                   d="m 133.296,234 3,8 3,-8 z"
                   id="path101"
                   inkscape:connector-curvature="0"
                   style="fill:#2a86c0;fill-opacity:1;stroke:#2a86c0;stroke-width:1;stroke-opacity:1" />
              </g>
              <g
                 id="g103">
                <path
                   d="m 206.296,214 0,20"
                   id="path105"
                   inkscape:connector-curvature="0"
                   style="fill-opacity:0;stroke:#2a86c0;stroke-width:1;stroke-dasharray:2, 2" />
                <path
                   d="m 203.296,234 3,8 3,-8 z"
                   id="path107"
                   inkscape:connector-curvature="0"
                   style="fill:#2a86c0;fill-opacity:1;stroke:#2a86c0;stroke-width:1;stroke-opacity:1" />
              </g>
              <text
                 transform="translate(171.131,225)"
                 id="text109">
                <tspan
                   x="-29.834999"
                   y="4.5"
                   font-size="14"
                   id="tspan111"
                   style="font-size:14px;font-family:GillSans;fill:#2a86c0">replication</tspan>
              </text>
            </g>
          </g>
        </g>
      </g>
    </g>
    <text
       transform="translate(525.949,406)"
       id="text113">
      <tspan
         x="-71.970001"
         y="7"
         font-size="24"
         id="tspan115"
         style="font-size:24px;font-family:GillSans;fill:#311e13">Data Center 2</tspan>
    </text>
    <g
       id="g117">
      <g
         id="g119">
        <path
           d="m 512.452,248.461 c 0,-0.807 -1.671,-1.461 -3.735,-1.461 l -107.53,0 c -2.062,0 -3.735,0.654 -3.735,1.461 l 0,42.077 c 0,0.807 1.673,1.462 3.735,1.462 l 107.53,0 c 2.064,0 3.735,-0.655 3.735,-1.462 l 0,-42.077"
           id="path121"
           inkscape:connector-curvature="0"
           style="fill:#a4c077" />
        <text
           transform="translate(454.952,269.5)"
           id="text123">
          <tspan
             x="-50.724998"
             y="7"
             font-size="24"
             id="tspan125"
             style="font-size:24px;font-family:GillSans;fill:#fffffe">Secondary</tspan>
        </text>
      </g>
      <g
         id="g127">
        <path
           d="m 654.446,248.461 c 0,-0.807 -1.671,-1.461 -3.735,-1.461 l -107.53,0 c -2.062,0 -3.735,0.654 -3.735,1.461 l 0,42.077 c 0,0.807 1.673,1.462 3.735,1.462 l 107.53,0 c 2.064,0 3.735,-0.655 3.735,-1.462 l 0,-42.077"
           id="path129"
           inkscape:connector-curvature="0"
           style="fill:#a4c077" />
        <text
           transform="translate(596.946,269.5)"
           id="text131">
          <tspan
             x="-50.724998"
             y="7"
             font-size="24"
             id="tspan133"
             style="font-size:24px;font-family:GillSans;fill:#fffffe">Secondary</tspan>
        </text>
      </g>
    </g>
    <path
       d="m 363.635,161 324.628,0 0,230.57 -324.628,0 z"
       id="path135"
       inkscape:connector-curvature="0"
       style="fill-opacity:0;stroke:#301c11;stroke-width:4" />
    <g
       id="g137">
      <g
         id="g139">
        <path
           d="m 583.449,168.334 c 0,-0.806 -1.671,-1.46 -3.735,-1.46 l -107.53,0 c -2.062,0 -3.735,0.654 -3.735,1.46 l 0,42.078 c 0,0.807 1.673,1.462 3.735,1.462 l 107.53,0 c 2.064,0 3.735,-0.655 3.735,-1.462 l 0,-42.078"
           id="path141"
           inkscape:connector-curvature="0"
           style="fill:#1d4595" />
        <text
           transform="translate(525.949,189.374)"
           id="text143">
          <tspan
             x="-38.237999"
             y="5.8200002"
             font-size="24"
             id="tspan145"
             style="font-size:24px;font-family:GillSans;fill:#ffffff">Primary</tspan>
        </text>
      </g>
      <g
         id="g147">
        <g
           id="g149">
          <path
             d="m 491.712,215 0,20"
             id="path151"
             inkscape:connector-curvature="0"
             style="fill-opacity:0;stroke:#1d4595;stroke-width:1;stroke-dasharray:2, 2" />
          <path
             d="m 488.712,235 3,8 3,-8 z"
             id="path153"
             inkscape:connector-curvature="0"
             style="fill:#1d4595;fill-opacity:1;stroke:#1d4595;stroke-width:1;stroke-opacity:1" />
        </g>
        <g
           id="g155">
          <path
             d="m 561.712,215 0,20"
             id="path157"
             inkscape:connector-curvature="0"
             style="fill-opacity:0;stroke:#1d4595;stroke-width:1;stroke-dasharray:2, 2" />
          <path
             d="m 558.712,235 3,8 3,-8 z"
             id="path159"
             inkscape:connector-curvature="0"
             style="fill:#1d4595;fill-opacity:1;stroke:#1d4595;stroke-width:1;stroke-opacity:1" />
        </g>
        <text
           transform="translate(526.547,226)"
           id="text161">
          <tspan
             x="-29.834999"
             y="4.5"
             font-size="14"
             id="tspan163"
             style="font-size:14px;font-family:GillSans;fill:#1d4595">replication</tspan>
        </text>
      </g>
    </g>
    <g
       id="g165">
      <g
         id="g167">
        <path
           d="m 187.452,341.461 c 0,-0.807 -1.671,-1.461 -3.735,-1.461 l -107.53,0 c -2.062,0 -3.735,0.654 -3.735,1.461 l 0,42.077 c 0,0.807 1.673,1.462 3.735,1.462 l 107.53,0 c 2.064,0 3.735,-0.655 3.735,-1.462 l 0,-42.077"
           id="path169"
           inkscape:connector-curvature="0"
           style="fill:#a4c077" />
        <text
           transform="translate(129.952,362.5)"
           id="text171">
          <tspan
             x="-50.724998"
             y="7"
             font-size="24"
             id="tspan173"
             style="font-size:24px;font-family:GillSans;fill:#fffffe">Secondary</tspan>
        </text>
      </g>
      <g
         id="g175">
        <path
           d="m 329.446,341.461 c 0,-0.807 -1.671,-1.461 -3.735,-1.461 l -107.53,0 c -2.062,0 -3.735,0.654 -3.735,1.461 l 0,42.077 c 0,0.807 1.673,1.462 3.735,1.462 l 107.53,0 c 2.064,0 3.735,-0.655 3.735,-1.462 l 0,-42.077"
           id="path177"
           inkscape:connector-curvature="0"
           style="fill:#a4c077" />
        <text
           transform="translate(271.946,362.5)"
           id="text179">
          <tspan
             x="-50.724998"
             y="7"
             font-size="24"
             id="tspan181"
             style="font-size:24px;font-family:GillSans;fill:#fffffe">Secondary</tspan>
        </text>
      </g>
    </g>
    <g
       id="g183">
      <g
         id="g185">
        <path
           d="m 485.077,341.461 c 0,-0.807 -1.671,-1.461 -3.736,-1.461 l -107.529,0 c -2.062,0 -3.735,0.654 -3.735,1.461 l 0,42.077 c 0,0.807 1.673,1.462 3.735,1.462 l 107.529,0 c 2.065,0 3.736,-0.655 3.736,-1.462 l 0,-42.077"
           id="path187"
           inkscape:connector-curvature="0"
           style="fill:#5ca831" />
        <text
           transform="translate(427.091,363.25)"
           id="text189">
          <tspan
             x="-50.724998"
             y="7"
             font-size="24"
             id="tspan191"
             style="font-size:24px;font-family:GillSans;fill:#fffffe">Secondary</tspan>
        </text>
      </g>
      <g
         id="g193">
        <path
           d="m 625.821,341.461 c 0,-0.807 -1.671,-1.461 -3.735,-1.461 l -107.53,0 c -2.062,0 -3.735,0.654 -3.735,1.461 l 0,42.077 c 0,0.807 1.673,1.462 3.735,1.462 l 107.53,0 c 2.064,0 3.735,-0.655 3.735,-1.462 l 0,-42.077"
           id="path195"
           inkscape:connector-curvature="0"
           style="fill:#5ca831" />
        <text
           transform="translate(567.835,363.25)"
           id="text197">
          <tspan
             x="-50.724998"
             y="7"
             font-size="24"
             id="tspan199"
             style="font-size:24px;font-family:GillSans;fill:#fffffe">Secondary</tspan>
        </text>
      </g>
    </g>
    <path
       d="m 465.667,192.167 -118.667,0"
       id="path201"
       inkscape:connector-curvature="0"
       style="fill-opacity:0;stroke:#1d4595;stroke-width:1;stroke-dasharray:2, 2" />
    <path
       d="M 347,192.167 347,307.5"
       id="path203"
       inkscape:connector-curvature="0"
       style="fill-opacity:0;stroke:#1d4595;stroke-width:1;stroke-dasharray:2, 2" />
    <path
       d="m 347,307.5 -214.667,0"
       id="path205"
       inkscape:connector-curvature="0"
       style="fill-opacity:0;stroke:#1d4595;stroke-width:1;stroke-dasharray:2, 2" />
    <g
       id="g207">
      <path
         d="m 129.333,307.5 0,23.5"
         id="path209"
         inkscape:connector-curvature="0"
         style="fill-opacity:0;stroke:#1d4595;stroke-width:1;stroke-dasharray:3, 2" />
      <path
         d="m 126.333,331 3,8 3,-8 z"
         id="path211"
         inkscape:connector-curvature="0"
         style="fill:#1d4595;fill-opacity:1;stroke:#1d4595;stroke-width:1;stroke-opacity:1" />
    </g>
    <g
       id="g213">
      <path
         d="m 272,307.5 0,23.5"
         id="path215"
         inkscape:connector-curvature="0"
         style="fill-opacity:0;stroke:#1d4595;stroke-width:1;stroke-dasharray:3, 2" />
      <path
         d="m 269,331 3,8 3,-8 z"
         id="path217"
         inkscape:connector-curvature="0"
         style="fill:#1d4595;fill-opacity:1;stroke:#1d4595;stroke-width:1;stroke-opacity:1" />
    </g>
    <text
       transform="translate(200.949,316)"
       id="text219">
      <tspan
         x="-29.834999"
         y="4.5"
         font-size="14"
         id="tspan221"
         style="font-size:14px;font-family:GillSans;fill:#1d4595">replication</tspan>
    </text>
    <path
       d="m 231,192.167 81.333,0"
       id="path223"
       inkscape:connector-curvature="0"
       style="fill-opacity:0;stroke:#2a86c0;stroke-width:1;stroke-dasharray:2, 2" />
    <path
       d="m 312.333,192.167 0,124.666"
       id="path225"
       inkscape:connector-curvature="0"
       style="fill-opacity:0;stroke:#2a86c0;stroke-width:1;stroke-dasharray:2, 2" />
    <path
       d="m 312.333,316.833 255.334,0"
       id="path227"
       inkscape:connector-curvature="0"
       style="fill-opacity:0;stroke:#2a86c0;stroke-width:1;stroke-dasharray:2, 2" />
    <g
       id="g229">
      <path
         d="M 426,316.833 426,331"
         id="path231"
         inkscape:connector-curvature="0"
         style="fill-opacity:0;stroke:#2a86c0;stroke-width:1;stroke-dasharray:2, 2" />
      <path
         d="m 423,331 3,8 3,-8 z"
         id="path233"
         inkscape:connector-curvature="0"
         style="fill:#2a86c0;fill-opacity:1;stroke:#2a86c0;stroke-width:1;stroke-opacity:1" />
    </g>
    <g
       id="g235">
      <path
         d="m 567.667,316.833 0,14.167"
         id="path237"
         inkscape:connector-curvature="0"
         style="fill-opacity:0;stroke:#2a86c0;stroke-width:1;stroke-dasharray:2, 2" />
      <path
         d="m 564.667,331 3,8 3,-8 z"
         id="path239"
         inkscape:connector-curvature="0"
         style="fill:#2a86c0;fill-opacity:1;stroke:#2a86c0;stroke-width:1;stroke-opacity:1" />
    </g>
    <text
       transform="translate(497.949,323.75)"
       id="text241">
      <tspan
         x="-29.834999"
         y="4.5"
         font-size="14"
         id="tspan243"
         style="font-size:14px;font-family:GillSans;fill:#2a86c0">replication</tspan>
    </text>
    <g
       id="g245">
      <text
         transform="translate(347,612)"
         id="text247">
        <tspan
           x="-70.835999"
           y="7"
           font-size="24"
           id="tspan249"
           style="font-size:24px;font-family:GillSans;fill:#311e13">Data Center 3</tspan>
      </text>
      <g
         id="g251">
        <g
           id="g253">
          <g
             id="g255">
            <path
               d="m 468.113,524.676 c 0,-0.807 -1.67,-1.461 -3.735,-1.461 l -107.529,0 c -2.063,0 -3.736,0.654 -3.736,1.461 l 0,42.077 c 0,0.808 1.673,1.462 3.736,1.462 l 107.529,0 c 2.065,0 3.735,-0.654 3.735,-1.462 l 0,-42.077"
               id="path257"
               inkscape:connector-curvature="0"
               style="fill:#e88a07" />
            <text
               transform="translate(410.127,546.465)"
               id="text259">
              <tspan
                 x="-35.882999"
                 y="7"
                 font-size="24"
                 id="tspan261"
                 style="font-size:24px;font-family:GillSans;fill:#fffffe">Arbiter</tspan>
            </text>
          </g>
          <g
             id="g263">
            <path
               d="m 326.399,524.676 c 0,-0.807 -1.671,-1.461 -3.736,-1.461 l -107.529,0 c -2.062,0 -3.735,0.654 -3.735,1.461 l 0,42.077 c 0,0.808 1.673,1.462 3.735,1.462 l 107.529,0 c 2.065,0 3.736,-0.654 3.736,-1.462 l 0,-42.077"
               id="path265"
               inkscape:connector-curvature="0"
               style="fill:#f9ce6f" />
            <text
               transform="translate(268.413,546.465)"
               id="text267">
              <tspan
                 x="-35.882999"
                 y="7"
                 font-size="24"
                 id="tspan269"
                 style="font-size:24px;font-family:GillSans;fill:#fffffe">Arbiter</tspan>
            </text>
          </g>
        </g>
        <path
           d="m 177.442,503.43 324.628,0 0,84.57 -324.628,0 z"
           id="path271"
           inkscape:connector-curvature="0"
           style="fill-opacity:0;stroke:#301c11;stroke-width:4" />
      </g>
    </g>
  </g>
</svg>
